<svg viewBox="895 511.399 380 62.202" width="5000" height="818.4473684210526" xmlns="http://www.w3.org/2000/svg" xmlns:xlink="http://www.w3.org/1999/xlink" preserveAspectRatio="none"><defs></defs><style>.aD6z1nYkhcolor {fill:#FFFFFF;fill-opacity:1;}.aD6z1nYkhstrokeColor-str {stroke:#D9D9D9;stroke-opacity:1;}</style><g opacity="1" transform="rotate(0 895 511.399)">
<svg width="380" height="62.202" x="895" y="511.399" version="1.1" preserveAspectRatio="none" viewBox="3.28 -30.88 190.36 31.16">
  <g transform="matrix(1 0 0 1 0 0)" class="aD6z1nYkhcolor"><path id="id-D6z1nYkh8" d="M30.24-21.60Q34.28-21.60 36.64-19.26Q39-16.92 39-12.24L39-12.24L39 0L34 0L34-11.60Q34-14.40 32.76-15.82Q31.52-17.24 29.20-17.24L29.20-17.24Q26.68-17.24 25.16-15.58Q23.64-13.92 23.64-10.84L23.64-10.84L23.64 0L18.64 0L18.64-11.60Q18.64-14.40 17.40-15.82Q16.16-17.24 13.84-17.24L13.84-17.24Q11.28-17.24 9.78-15.60Q8.28-13.96 8.28-10.84L8.28-10.84L8.28 0L3.28 0L3.28-21.36L8.04-21.36L8.04-18.64Q9.24-20.08 11.04-20.84Q12.84-21.60 15.04-21.60L15.04-21.60Q17.44-21.60 19.30-20.70Q21.16-19.80 22.24-18.04L22.24-18.04Q23.56-19.72 25.64-20.66Q27.72-21.60 30.24-21.60L30.24-21.60Z M61.48-21.36L66.48-21.36L66.48 0L61.72 0L61.72-2.76Q60.48-1.24 58.66-0.48Q56.84 0.28 54.64 0.28L54.64 0.28Q51.52 0.28 49.06-1.08Q46.60-2.44 45.22-4.92Q43.84-7.40 43.84-10.68L43.84-10.68Q43.84-13.96 45.22-16.42Q46.60-18.88 49.06-20.24Q51.52-21.60 54.64-21.60L54.64-21.60Q56.72-21.60 58.46-20.88Q60.20-20.16 61.48-18.76L61.48-18.76L61.48-21.36ZM55.20-4Q57.96-4 59.76-5.84Q61.56-7.68 61.56-10.68L61.56-10.68Q61.56-13.68 59.76-15.52Q57.96-17.36 55.20-17.36L55.20-17.36Q52.44-17.36 50.66-15.52Q48.88-13.68 48.88-10.68L48.88-10.68Q48.88-7.68 50.66-5.84Q52.44-4 55.20-4L55.20-4Z M82.84 0.28Q79.52 0.28 76.88-1.12Q74.24-2.52 72.76-5.02Q71.28-7.52 71.28-10.68L71.28-10.68Q71.28-13.84 72.76-16.32Q74.24-18.80 76.86-20.20Q79.48-21.60 82.84-21.60L82.84-21.60Q86-21.60 88.38-20.32Q90.76-19.04 91.96-16.64L91.96-16.64L88.12-14.40Q87.20-15.88 85.82-16.62Q84.44-17.36 82.80-17.36L82.80-17.36Q80-17.36 78.16-15.54Q76.32-13.72 76.32-10.68L76.32-10.68Q76.32-7.64 78.14-5.82Q79.96-4 82.80-4L82.80-4Q84.44-4 85.82-4.74Q87.20-5.48 88.12-6.96L88.12-6.96L91.96-4.72Q90.72-2.32 88.34-1.02Q85.96 0.28 82.84 0.28L82.84 0.28Z M108.20-21.60Q112.24-21.60 114.68-19.24Q117.12-16.88 117.12-12.24L117.12-12.24L117.12 0L112.12 0L112.12-11.60Q112.12-14.40 110.80-15.82Q109.48-17.24 107.04-17.24L107.04-17.24Q104.28-17.24 102.68-15.58Q101.08-13.92 101.08-10.80L101.08-10.80L101.08 0L96.08 0L96.08-29.68L101.08-29.68L101.08-18.88Q102.32-20.20 104.14-20.90Q105.96-21.60 108.20-21.60L108.20-21.60Z M130.08 0.28Q127.48 0.28 125-0.40Q122.52-1.08 121.04-2.12L121.04-2.12L122.96-5.92Q124.40-4.96 126.42-4.38Q128.44-3.80 130.40-3.80L130.40-3.80Q134.88-3.80 134.88-6.16L134.88-6.16Q134.88-7.28 133.74-7.72Q132.60-8.16 130.08-8.56L130.08-8.56Q127.44-8.96 125.78-9.48Q124.12-10 122.90-11.30Q121.68-12.60 121.68-14.92L121.68-14.92Q121.68-17.96 124.22-19.78Q126.76-21.60 131.08-21.60L131.08-21.60Q133.28-21.60 135.48-21.10Q137.68-20.60 139.08-19.76L139.08-19.76L137.16-15.96Q134.44-17.56 131.04-17.56L131.04-17.56Q128.84-17.56 127.70-16.90Q126.56-16.24 126.56-15.16L126.56-15.16Q126.56-13.96 127.78-13.46Q129-12.96 131.56-12.52L131.56-12.52Q134.12-12.12 135.76-11.60Q137.40-11.08 138.58-9.84Q139.76-8.60 139.76-6.32L139.76-6.32Q139.76-3.32 137.16-1.52Q134.56 0.28 130.08 0.28L130.08 0.28Z M159.76-21.36L164.76-21.36L164.76 0L160 0L160-2.72Q158.80-1.28 157-0.50Q155.20 0.28 153.12 0.28L153.12 0.28Q148.84 0.28 146.38-2.10Q143.92-4.48 143.92-9.16L143.92-9.16L143.92-21.36L148.92-21.36L148.92-9.84Q148.92-6.96 150.22-5.54Q151.52-4.12 153.92-4.12L153.92-4.12Q156.60-4.12 158.18-5.78Q159.76-7.44 159.76-10.56L159.76-10.56L159.76-21.36Z M176.08-18.24Q178.24-21.60 183.68-21.60L183.68-21.60L183.68-16.84Q183.04-16.96 182.52-16.96L182.52-16.96Q179.60-16.96 177.96-15.26Q176.32-13.56 176.32-10.36L176.32-10.36L176.32 0L171.32 0L171.32-21.36L176.08-21.36L176.08-18.24Z M187.92 0L187.92-21.36L192.92-21.36L192.92 0L187.92 0ZM190.44-24.88Q189.08-24.88 188.16-25.74Q187.24-26.60 187.24-27.88L187.24-27.88Q187.24-29.16 188.16-30.02Q189.08-30.88 190.44-30.88L190.44-30.88Q191.80-30.88 192.72-30.06Q193.64-29.24 193.64-28L193.64-28Q193.64-26.68 192.74-25.78Q191.84-24.88 190.44-24.88L190.44-24.88Z"/></g>
</svg>
</g></svg>